<svg width="28" height="28" viewBox="0 0 28 28" fill="none" xmlns="http://www.w3.org/2000/svg">
<path d="M12.5 1.5C12.5 0.671573 13.1716 0 14 0C16.7689 0 19.4757 0.821085 21.778 2.35942C24.0803 3.89776 25.8747 6.08426 26.9343 8.64243C27.9939 11.2006 28.2712 14.0155 27.731 16.7313C27.1908 19.447 25.8574 21.9416 23.8995 23.8995C21.9416 25.8574 19.447 27.1908 16.7313 27.731C14.0155 28.2712 11.2006 27.9939 8.64244 26.9343C6.08428 25.8747 3.89777 24.0803 2.35943 21.778C0.82109 19.4757 2.57463e-06 16.769 0 14C0 13.1716 0.67157 12.5 1.49999 12.5C2.32842 12.5 2.99999 13.1716 2.99999 14C2.99999 16.1756 3.64513 18.3023 4.85383 20.1113C6.06253 21.9202 7.78049 23.3301 9.79048 24.1627C11.8005 24.9952 14.0122 25.2131 16.146 24.7886C18.2798 24.3642 20.2398 23.3165 21.7782 21.7782C23.3166 20.2398 24.3642 18.2798 24.7886 16.146C25.2131 14.0122 24.9952 11.8005 24.1627 9.79048C23.3301 7.7805 21.9202 6.06253 20.1113 4.85384C18.3023 3.64514 16.1756 3 14 3C13.1716 3 12.5 2.32843 12.5 1.5Z" fill="currentColor"/>
</svg>
