<svg width="56" height="30" viewBox="0 0 56 30" fill="none" xmlns="http://www.w3.org/2000/svg">
<g clip-path="url(#clip0_1858_14609)">
<path d="M18.2942 9.34451C18.2857 14.3044 14.2616 18.3183 9.31803 18.3183H6.26228C5.99684 18.3183 5.78024 18.5356 5.78024 18.8019V25.4428C5.78024 25.7091 5.56364 25.9264 5.2982 25.9264H0.48204C0.2166 25.9264 0 25.7091 0 25.4428V0.48363C0 0.217314 0.2166 0 0.48204 0H9.31803C15.1429 0 18.3069 3.3215 18.2942 9.34451ZM8.97614 13.0665C11.4246 13.0665 12.5118 11.9075 12.5118 9.31468C12.5118 6.72182 11.4246 5.52873 8.97614 5.52873H6.26228C5.99684 5.52873 5.78024 5.74604 5.78024 6.01236V12.585C5.78024 12.8514 5.99684 13.0687 6.26228 13.0687H8.97614V13.0665Z" fill="#2D3037"/>
<path d="M35.9599 18.5825V25.4321C35.9599 25.6984 35.7433 25.9158 35.4779 25.9158H30.7955C30.53 25.9158 30.3134 25.6984 30.3134 25.4321V0.485748C30.3134 0.219432 30.53 0.00211785 30.7955 0.00211785H35.4779C35.7433 0.00211785 35.9599 0.219432 35.9599 0.485748V12.5936C35.9599 13.09 36.6161 13.2625 36.8603 12.8322L41.8739 3.98621C41.9589 3.83494 42.1202 3.7412 42.2923 3.7412H47.3993C47.7709 3.7412 48.0024 4.14387 47.8155 4.46558L41.3197 15.7297C41.2645 15.8256 41.2666 15.9449 41.3239 16.0386L49.525 29.5377C49.6481 29.7379 49.5037 29.9979 49.268 29.9979H43.7511C43.6471 29.9979 43.5494 29.9446 43.4963 29.8551L36.5163 18.4227C36.357 18.1649 35.9599 18.2778 35.9599 18.5825Z" fill="#2D3037"/>
<path d="M23.8554 1.96254C25.5564 1.96254 26.7986 3.21529 26.7986 4.82597C26.7986 6.43665 25.5564 7.64466 23.8554 7.64466C22.1545 7.64466 20.9568 6.43665 20.9568 4.82597C20.9568 3.21529 22.1991 1.96254 23.8554 1.96254Z" fill="#2D3037"/>
<path d="M26.1191 9.63261H21.4388C21.1726 9.63261 20.9568 9.84914 20.9568 10.1162V25.4518C20.9568 25.7189 21.1726 25.9354 21.4388 25.9354H26.1191C26.3853 25.9354 26.6011 25.7189 26.6011 25.4518V10.1162C26.6011 9.84914 26.3853 9.63261 26.1191 9.63261Z" fill="#2D3037"/>
<path d="M52.7781 1.96254C54.4791 1.96254 55.7213 3.21529 55.7213 4.82597C55.7213 6.43665 54.4791 7.64466 52.7781 7.64466C51.0772 7.64466 49.8795 6.43665 49.8795 4.82597C49.8795 3.21529 51.1218 1.96254 52.7781 1.96254Z" fill="#2D3037"/>
<path d="M55.0035 9.63261H50.358C50.0937 9.63261 49.8795 9.84624 49.8795 10.1098V25.2398C49.8795 25.5033 50.0937 25.717 50.358 25.717H55.0035C55.2677 25.717 55.4819 25.5033 55.4819 25.2398V10.1098C55.4819 9.84624 55.2677 9.63261 55.0035 9.63261Z" fill="#2D3037"/>
</g>
<defs>
<clipPath id="clip0_1858_14609">
<rect width="55.6626" height="30" fill="white"/>
</clipPath>
</defs>
</svg>
